<?xml version="1.0" standalone="no"?>
<!DOCTYPE svg PUBLIC "-//W3C//DTD SVG 20010904//EN"
 "http://www.w3.org/TR/2001/REC-SVG-20010904/DTD/svg10.dtd">
<svg version="1.0" xmlns="http://www.w3.org/2000/svg"
 width="500.000000pt" height="500.000000pt" viewBox="0 0 500.000000 500.000000"
 preserveAspectRatio="xMidYMid meet">

<g transform="translate(0.000000,500.000000) scale(0.100000,-0.100000)"
fill="#130f40" stroke="none">
<path d="M2150 3636 c0 -2 44 -80 99 -173 154 -263 204 -348 226 -387 l20 -35
140 244 140 245 64 0 c51 0 62 -3 58 -14 -3 -8 -80 -143 -171 -301 l-166 -287
27 -49 c16 -27 30 -49 33 -49 4 1 449 769 458 792 2 4 -79 8 -180 8 l-183 0
-105 -181 c-58 -100 -109 -182 -115 -183 -5 -1 -59 83 -120 186 l-110 188 -57
0 c-32 0 -58 -2 -58 -4z"/>
<path d="M1767 3448 c58 -101 218 -378 355 -615 l250 -433 60 0 c32 0 57 3 55
8 -198 343 -615 1066 -629 1090 l-20 32 66 0 65 0 54 -92 c30 -51 177 -306
327 -566 l273 -474 17 29 c10 15 163 280 340 588 178 308 329 569 336 580 22
31 17 35 -43 35 l-58 0 -294 -510 c-161 -281 -296 -508 -300 -505 -3 3 -137
232 -296 508 l-290 502 -187 3 -187 2 106 -182z"/>
</g>
</svg>
